# xmcd
#
# Track frame offsets:
#	150
#	19235
#	47667
#	67005
#	85281
#	102787
#	120253
#	143028
#	168684
#	189313
#	214212
#
# Disc length: 3187 seconds
#
# Revision: 1
# Processed by: cddbd v1.5.1PL0 Copyright (c) Steve Scherf et al.
# Submitted via: audiograbber 1.83.01
#
DISCID=960c710b
DTITLE=Lundy Lewis - I Ain't Through Yet
DYEAR=2001
DGENRE=Bluegrass
TTITLE0=Lonely 'Lanta Night
TTITLE1=Hey ALL You People Now
TTITLE2=Jeannie's on the Money
TTITLE3=Big Cash Cow
TTITLE4=The Rabbit Song
TTITLE5=Papa Love Mama
TTITLE6=Not This Time
TTITLE7=Do It Slow
TTITLE8=My Baby Done Left Me
TTITLE9=I Ain't Through Yet
TTITLE10=Mispelled Tatoo
EXTD=
EXTT0=
EXTT1=
EXTT2=
EXTT3=
EXTT4=
EXTT5=
EXTT6=
EXTT7=
EXTT8=
EXTT9=
EXTT10=
PLAYORDER=
